<?xml version="1.0" encoding="UTF-8" standalone="no"?><!DOCTYPE svg PUBLIC "-//W3C//DTD SVG 1.1//EN" "http://www.w3.org/Graphics/SVG/1.1/DTD/svg11.dtd"><svg width="100%" height="100%" viewBox="0 0 1584 1812" version="1.1" xmlns="http://www.w3.org/2000/svg" xmlns:xlink="http://www.w3.org/1999/xlink" xml:space="preserve" xmlns:serif="http://www.serif.com/" style="fill-rule:evenodd;clip-rule:evenodd;stroke-linecap:round;stroke-linejoin:round;stroke-miterlimit:1.5;"><g><path d="M31.25,468.44l760.313,-437.19" style="fill:none;stroke:#000;stroke-width:62.5px;"/><path d="M31.25,468.44l0,371.527" style="fill:none;stroke:#000;stroke-width:62.5px;"/><path d="M1551.875,468.44l0,241.674" style="fill:none;stroke:#000;stroke-width:62.5px;"/><path d="M31.25,839.966l965.152,564.773" style="fill:none;stroke:#000;stroke-width:62.5px;"/><path d="M996.402,1404.739l-204.84,132.661" style="fill:none;stroke:#000;stroke-width:62.5px;"/><path d="M31.25,1100.378l760.313,437.023" style="fill:none;stroke:#000;stroke-width:62.5px;"/><path d="M31.25,1100.378l0,242.494" style="fill:none;stroke:#000;stroke-width:62.5px;"/><path d="M31.25,1342.872l760.313,437.023" style="fill:none;stroke:#000;stroke-width:62.5px;"/><path d="M791.563,1779.895l754.126,-437.023" style="fill:none;stroke:#000;stroke-width:62.5px;"/><path d="M1545.689,1342.872l0,-375.733" style="fill:none;stroke:#000;stroke-width:62.5px;"/><path d="M1545.689,967.139l-960.788,-565.933" style="fill:none;stroke:#000;stroke-width:62.5px;"/><path d="M584.901,401.206l198.94,-123.294" style="fill:none;stroke:#000;stroke-width:62.5px;"/><path d="M783.841,277.911l761.848,432.202" style="fill:none;stroke:#000;stroke-width:62.5px;"/><path d="M1211.589,1278.917l107.774,-58.625" style="fill:none;stroke:#000;stroke-width:62.5px;"/><path d="M1319.363,1220.292l0,-125.244" style="fill:none;stroke:#000;stroke-width:62.5px;"/><path d="M1319.363,1095.048l-967.272,-570.261" style="fill:none;stroke:#000;stroke-width:62.5px;"/><path d="M352.091,524.787l-107.774,66.619" style="fill:none;stroke:#000;stroke-width:62.5px;"/><path d="M244.317,591.406l0,118.708" style="fill:none;stroke:#000;stroke-width:62.5px;"/><path d="M244.317,710.114l967.272,568.804" style="fill:none;stroke:#000;stroke-width:62.5px;"/><path d="M1551.875,468.44l-760.313,-437.19" style="fill:none;stroke:#000;stroke-width:62.5px;"/></g></svg>