<?xml version="1.0" encoding="UTF-8" standalone="no"?><!DOCTYPE svg PUBLIC "-//W3C//DTD SVG 1.1//EN" "http://www.w3.org/Graphics/SVG/1.1/DTD/svg11.dtd"><svg width="100%" height="100%" viewBox="0 0 4961 3508" version="1.1" xmlns="http://www.w3.org/2000/svg" xmlns:xlink="http://www.w3.org/1999/xlink" xml:space="preserve" xmlns:serif="http://www.serif.com/" style="fill-rule:evenodd;clip-rule:evenodd;stroke-linecap:round;stroke-linejoin:round;stroke-miterlimit:1.5;"><rect id="Logo-Horizontal" serif:id="Logo Horizontal" x="0" y="0" width="4960.63" height="3507.874" style="fill:#0b1c2d;"/><g><path d="M997.043,1293.435l433.562,-249.304" style="fill:none;stroke:#6a63e9;stroke-width:33.33px;"/><path d="M997.043,1293.435l0,211.86" style="fill:none;stroke:#6a63e9;stroke-width:33.33px;"/><path d="M1864.167,1293.435l0,137.813" style="fill:none;stroke:#6a63e9;stroke-width:33.33px;"/><path d="M997.043,1505.295l550.37,322.057" style="fill:none;stroke:#6a63e9;stroke-width:33.33px;"/><path d="M1547.413,1827.353l-116.808,75.649" style="fill:none;stroke:#6a63e9;stroke-width:33.33px;"/><path d="M997.043,1653.793l433.562,249.209" style="fill:none;stroke:#6a63e9;stroke-width:33.33px;"/><path d="M997.043,1653.793l0,138.28" style="fill:none;stroke:#6a63e9;stroke-width:33.33px;"/><path d="M997.043,1792.073l433.562,249.209" style="fill:none;stroke:#6a63e9;stroke-width:33.33px;"/><path d="M1430.605,2041.282l430.035,-249.209" style="fill:none;stroke:#6a63e9;stroke-width:33.33px;"/><path d="M1860.639,1792.073l0,-214.259" style="fill:none;stroke:#6a63e9;stroke-width:33.33px;"/><path d="M1860.639,1577.814l-547.882,-322.719" style="fill:none;stroke:#6a63e9;stroke-width:33.33px;"/><path d="M1312.757,1255.096l113.444,-70.308" style="fill:none;stroke:#6a63e9;stroke-width:33.33px;"/><path d="M1426.201,1184.788l434.438,246.46" style="fill:none;stroke:#6a63e9;stroke-width:33.33px;"/><path d="M1670.122,1755.604l61.457,-33.43" style="fill:none;stroke:#6a63e9;stroke-width:33.33px;"/><path d="M1731.579,1722.173l0,-71.42" style="fill:none;stroke:#6a63e9;stroke-width:33.33px;"/><path d="M1731.579,1650.754l-551.579,-325.187" style="fill:none;stroke:#6a63e9;stroke-width:33.33px;"/><path d="M1180,1325.566l-61.457,37.989" style="fill:none;stroke:#6a63e9;stroke-width:33.33px;"/><path d="M1118.543,1363.556l0,67.692" style="fill:none;stroke:#6a63e9;stroke-width:33.33px;"/><path d="M1118.543,1431.248l551.579,324.356" style="fill:none;stroke:#6a63e9;stroke-width:33.33px;"/><path d="M1864.167,1293.435l-433.562,-249.304" style="fill:none;stroke:#6a63e9;stroke-width:33.33px;"/></g><g transform="matrix(600,0,0,600,4007.543456,1753.937008)"></g><text x="1903.943px" y="1753.937px" style="font-family:'Montserrat-Regular', 'Montserrat';font-size:600px;fill:#fff;">entinel</text><g transform="matrix(183.333333,0,0,183.333333,4099.760123,1943.975536)"></g><text x="1928.177px" y="1943.976px" style="font-family:'Montserrat-Light', 'Montserrat';font-weight:300;font-size:183.333px;fill:#b6c2cf;stroke:#b6c2cf;stroke-width:1px;stroke-linecap:butt;stroke-miterlimit:2;">R<tspan x="2151.843px 2366.16px 2588.36px 2822.843px 3011.31px 3225.81px 3420.693px 3566.443px 3811.743px " y="1943.976px 1943.976px 1943.976px 1943.976px 1943.976px 1943.976px 1943.976px 1943.976px 1943.976px ">EPUTATION</tspan></text></svg>